<?xml version="1.0" standalone="no"?>
<!DOCTYPE svg PUBLIC "-//W3C//DTD SVG 20010904//EN"
 "http://www.w3.org/TR/2001/REC-SVG-20010904/DTD/svg10.dtd">
<svg version="1.0" xmlns="http://www.w3.org/2000/svg"
 width="873.000000pt" height="1280.000000pt" viewBox="0 0 873.000000 1280.000000"
 preserveAspectRatio="xMidYMid meet">
<metadata>
Created by potrace 1.15, written by Peter Selinger 2001-2017
</metadata>
<g transform="translate(0.000000,1280.000000) scale(0.100000,-0.100000)"
fill="#000000" stroke="none">
<path d="M3854 12576 c-9 -23 4 -83 28 -129 28 -55 18 -55 -21 0 -29 41 -34
44 -48 30 -13 -12 -13 -21 -4 -50 7 -20 21 -47 32 -61 24 -30 10 -35 -16 -6
-45 50 -62 -2 -20 -60 30 -41 30 -39 5 -33 -32 8 -35 -22 -6 -71 l26 -45 -27
2 c-25 2 -28 -1 -26 -26 1 -15 11 -40 22 -56 22 -31 27 -46 12 -36 -6 3 -15
-4 -21 -15 -11 -20 -9 -68 6 -203 l6 -48 -99 50 c-72 37 -141 61 -258 92 -88
23 -178 50 -200 61 -57 29 -119 82 -156 133 -18 25 -36 45 -41 45 -15 0 -8
-23 17 -56 14 -18 25 -35 25 -38 0 -4 -26 14 -57 39 -32 25 -61 45 -65 45 -16
0 -7 -19 24 -49 39 -38 31 -40 -22 -5 -55 36 -65 20 -15 -23 38 -32 38 -34 13
-28 -37 10 -36 -9 2 -45 26 -24 28 -29 12 -35 -15 -6 -14 -9 8 -28 14 -12 25
-31 25 -42 0 -13 13 -27 40 -40 28 -14 35 -20 23 -23 -32 -6 -19 -31 22 -43
38 -12 39 -13 19 -27 -19 -13 -19 -15 -3 -33 9 -10 27 -19 38 -19 19 -1 19 -2
4 -11 -46 -26 0 -57 66 -45 31 6 35 4 44 -23 14 -40 77 -107 129 -138 52 -30
153 -63 195 -63 27 0 30 -2 24 -25 -4 -14 -23 -59 -42 -101 -32 -66 -46 -83
-109 -132 -98 -77 -105 -89 -70 -120 22 -18 35 -22 59 -18 43 9 119 61 207
143 90 84 140 118 244 171 51 25 96 57 123 86 l42 45 33 -52 c65 -100 178
-237 298 -361 l121 -125 -669 -3 -668 -3 -65 -31 c-82 -39 -144 -99 -178 -172
l-27 -57 -3 -500 -3 -500 -34 -22 c-41 -27 -75 -89 -75 -136 0 -33 -3 -35 -46
-46 -105 -27 -223 -108 -283 -195 -16 -22 -40 -74 -55 -114 l-26 -73 0 -654 0
-654 -28 -15 c-77 -40 -131 -143 -117 -225 l6 -37 -63 -18 c-178 -50 -333
-178 -409 -341 -66 -140 -63 -101 -69 -977 l-5 -797 -47 -30 c-190 -121 -175
-406 26 -505 28 -14 6 -16 -269 -16 -221 0 -318 -4 -368 -15 -205 -43 -390
-226 -437 -434 -18 -76 -15 -204 5 -286 16 -61 16 -80 6 -150 -22 -142 -56
-224 -144 -344 -31 -42 -36 -55 -26 -62 64 -40 240 -4 374 76 32 20 59 34 60
33 2 -2 10 -20 19 -41 11 -28 26 -43 58 -57 80 -37 187 -19 323 54 l80 42 27
-37 c15 -21 42 -46 59 -55 71 -36 231 -8 339 60 l54 34 33 -38 c87 -101 269
-90 420 26 l32 24 23 -33 c35 -49 58 -64 119 -77 89 -19 188 6 285 74 l52 35
29 -37 c36 -45 105 -72 184 -72 77 0 137 20 208 70 l60 42 27 -31 c44 -53 98
-75 184 -76 41 0 87 3 103 8 26 7 30 3 88 -85 154 -237 300 -586 363 -871 129
-575 87 -1176 -117 -1647 -56 -130 -59 -133 -135 -165 -219 -92 -371 -186
-473 -292 -56 -58 -179 -228 -179 -247 0 -3 585 -6 1300 -6 715 0 1300 4 1300
8 0 17 -73 128 -127 194 -61 75 -135 145 -198 188 -65 44 -264 143 -353 175
-46 17 -87 37 -92 45 -47 86 -139 431 -171 640 -30 194 -36 535 -15 740 39
368 155 755 318 1060 60 113 174 290 187 290 4 0 28 -7 51 -15 59 -21 165 -19
215 4 22 10 53 33 69 50 17 17 33 31 37 31 4 0 30 -16 59 -35 134 -90 310 -87
385 8 l28 35 59 -39 c73 -47 148 -70 232 -70 77 -1 125 19 165 68 l28 34 64
-35 c91 -49 167 -69 250 -64 75 4 108 21 145 76 l21 30 44 -29 c61 -41 187
-79 259 -79 83 0 132 22 159 70 l22 39 62 -34 c82 -45 195 -75 281 -75 66 0
70 1 102 36 19 19 34 42 34 50 0 20 13 18 79 -16 59 -29 189 -70 225 -70 14 0
2 18 -47 69 -84 89 -130 184 -153 311 -15 83 -16 110 -5 210 12 116 5 221 -19
284 -62 165 -165 279 -311 345 -98 44 -151 51 -392 52 -155 0 -215 3 -198 10
50 20 110 80 138 137 23 47 28 70 28 132 -1 120 -52 200 -166 259 l-54 28 -5
814 c-5 789 -6 816 -26 870 -54 149 -182 295 -319 365 -44 23 -102 47 -130 53
l-50 12 0 68 c0 91 -37 154 -112 191 l-52 25 0 646 c-1 716 1 694 -68 812 -63
107 -177 196 -289 226 -41 11 -42 12 -46 61 -6 59 -41 110 -92 134 l-36 17 0
492 0 492 -29 62 c-37 78 -99 141 -177 179 l-59 29 -583 3 -584 3 91 95 c125
130 209 230 272 322 28 42 56 81 60 86 5 5 26 -7 49 -28 43 -39 81 -59 195
-102 39 -15 95 -43 125 -64 30 -20 92 -62 136 -92 45 -31 105 -63 133 -73 48
-16 53 -16 77 0 55 36 42 57 -86 139 -56 35 -72 53 -116 126 -28 47 -50 88
-48 91 2 4 19 10 38 13 111 21 258 137 284 225 13 41 13 41 61 41 56 0 81 19
55 41 -14 11 -13 14 10 26 31 16 34 41 6 51 -18 7 -16 10 20 26 44 19 54 46
18 46 -19 1 -16 4 15 21 40 21 59 50 38 57 -7 2 -2 13 14 28 28 26 26 47 -3
37 -10 -3 -3 8 16 27 38 38 43 65 11 55 -20 -7 -20 -5 6 29 38 49 24 57 -28
15 l-42 -33 28 37 c48 64 24 65 -43 2 l-63 -60 26 46 c15 25 27 51 27 57 0 25
-21 10 -41 -30 -30 -58 -116 -146 -169 -173 -25 -12 -110 -47 -190 -79 -95
-37 -172 -75 -225 -110 l-80 -54 -7 41 c-3 23 -7 76 -7 117 -1 82 -10 106 -35
97 -14 -5 -13 0 4 33 22 43 26 85 9 96 -6 3 -16 1 -22 -5 -23 -23 -27 -9 -7
29 31 61 25 99 -12 79 -18 -10 -18 -9 1 30 39 76 21 111 -29 59 l-32 -33 20
40 c26 53 33 87 23 104 -14 22 -40 5 -57 -35 -21 -51 -29 -35 -10 20 18 52 20
94 7 115 -13 21 -37 7 -44 -26 -7 -35 -47 -126 -53 -120 -2 2 1 28 7 57 8 39
8 59 0 78 -10 22 -14 23 -26 11 -19 -19 -72 -155 -86 -218 -14 -66 -2 -139 46
-281 19 -57 35 -105 35 -106 0 -1 -26 9 -57 22 -105 43 -247 26 -327 -41 l-30
-24 -43 30 c-123 85 -284 78 -409 -18 -25 -19 -47 -33 -49 -31 -1 2 11 59 26
128 39 168 48 309 24 380 -18 56 -77 161 -100 180 -35 29 -45 -18 -19 -94 25
-73 11 -64 -33 21 -40 79 -58 97 -69 69z"/>
</g>
</svg>
